<?xml version="1.0" encoding="utf-8"?>
<!-- Generator: Adobe Illustrator 27.5.0, SVG Export Plug-In . SVG Version: 6.00 Build 0)  -->
<svg version="1.1" xmlns="http://www.w3.org/2000/svg" xmlns:xlink="http://www.w3.org/1999/xlink" x="0px" y="0px"
	 viewBox="0 0 72 72" style="enable-background:new 0 0 72 72;" xml:space="preserve">
<style type="text/css">
	.st0{fill:#2A3042;}
	.st1{fill:#FFFFFF;}
</style>
<g id="Layer_1">
	<g>
		<circle class="st0" cx="36" cy="36" r="36"/>
	</g>
</g>
<g id="Layer_2">
	<path class="st1" d="M22.1,26.6c0-1.8,0.6-3.5,1.7-5.3c1.1-1.8,2.8-3.3,4.9-4.5c2.2-1.2,4.7-1.8,7.6-1.8c2.7,0,5,0.5,7.1,1.5
		c2.1,1,3.6,2.3,4.8,4c1.1,1.7,1.7,3.6,1.7,5.5c0,1.6-0.3,3-1,4.1c-0.6,1.2-1.4,2.2-2.3,3.1c-0.9,0.9-2.5,2.3-4.7,4.3
		c-0.6,0.6-1.1,1.1-1.5,1.5c-0.4,0.4-0.7,0.8-0.8,1.2c-0.2,0.4-0.3,0.7-0.4,1.1c-0.1,0.4-0.3,1-0.5,1.9c-0.4,1.9-1.5,2.9-3.3,2.9
		c-1,0-1.8-0.3-2.4-0.9c-0.7-0.6-1-1.6-1-2.8c0-1.6,0.2-2.9,0.7-4c0.5-1.1,1.1-2.1,1.9-3s1.9-1.9,3.2-3.1c1.2-1,2-1.8,2.6-2.3
		c0.5-0.5,1-1.1,1.3-1.8c0.4-0.6,0.5-1.3,0.5-2.1c0-1.5-0.6-2.7-1.7-3.7c-1.1-1-2.5-1.5-4.3-1.5c-2,0-3.5,0.5-4.5,1.5
		c-1,1-1.8,2.5-2.4,4.5c-0.6,2.1-1.8,3.1-3.6,3.1c-1,0-1.9-0.4-2.6-1.1C22.5,28.2,22.1,27.4,22.1,26.6z M35.7,57
		c-1.1,0-2.1-0.4-3-1.1c-0.8-0.7-1.3-1.8-1.3-3.1c0-1.2,0.4-2.1,1.2-2.9c0.8-0.8,1.8-1.2,3-1.2c1.2,0,2.1,0.4,2.9,1.2
		c0.8,0.8,1.2,1.8,1.2,2.9c0,1.3-0.4,2.3-1.2,3.1C37.7,56.6,36.8,57,35.7,57z"/>
</g>
</svg>
