<?xml version="1.0" encoding="utf-8"?>
<!-- Generator: Adobe Illustrator 27.5.0, SVG Export Plug-In . SVG Version: 6.00 Build 0)  -->
<svg version="1.1" xmlns="http://www.w3.org/2000/svg" xmlns:xlink="http://www.w3.org/1999/xlink" x="0px" y="0px"
	 viewBox="0 0 72 72" style="enable-background:new 0 0 72 72;" xml:space="preserve">
<style type="text/css">
	.st0{display:none;}
	.st1{display:inline;}
	.st2{fill:#FFFFFF;}
	.st3{display:inline;fill:#FFFFFF;}
	.st4{display:none;fill:#FFFFFF;}
	.st5{display:none;fill:#2A3042;}
	.st6{fill:#2A3042;}
	.st7{fill:#ED1C24;}
	.st8{display:inline;fill:#2A3042;}
</style>
<g id="Layer_1">
	<g class="st0">
		<g class="st1">
			<g>
				<path class="st2" d="M27.33,60.43c-1.2,0-2.17-0.97-2.17-2.17V29.35c0-1.2,0.97-2.17,2.17-2.17c1.2,0,2.17,0.97,2.17,2.17v28.92
					C29.49,59.46,28.52,60.43,27.33,60.43z"/>
			</g>
			<g>
				<path class="st2" d="M36,60.43c-1.2,0-2.17-0.97-2.17-2.17V29.35c0-1.2,0.97-2.17,2.17-2.17s2.17,0.97,2.17,2.17v28.92
					C38.17,59.46,37.2,60.43,36,60.43z"/>
			</g>
			<g>
				<path class="st2" d="M44.68,60.43c-1.2,0-2.17-0.97-2.17-2.17V29.35c0-1.2,0.97-2.17,2.17-2.17s2.17,0.97,2.17,2.17v28.92
					C46.84,59.46,45.87,60.43,44.68,60.43z"/>
			</g>
		</g>
		<path class="st3" d="M59.75,6.65H43.51V5.06c0-2.79-2.27-5.06-5.06-5.06h-4.89c-2.79,0-5.06,2.27-5.06,5.06v1.59H12.25
			c-2.74,0-4.98,2.23-4.98,4.98v3.35c0,2.35,1.64,4.33,3.84,4.84l3.04,47.61l0.01,0.12c0.31,2.54,2.47,4.45,5.02,4.45h33.63
			c2.55,0,4.71-1.91,5.02-4.45l0.01-0.06l3.04-47.67c2.2-0.51,3.84-2.49,3.84-4.84v-3.35C64.72,8.88,62.49,6.65,59.75,6.65z
			 M32.84,5.06c0-0.4,0.32-0.72,0.72-0.72h4.89c0.4,0,0.72,0.32,0.72,0.72v1.59h-6.33V5.06z M11.61,11.63
			c0-0.35,0.29-0.64,0.64-0.64h47.5c0.35,0,0.64,0.29,0.64,0.64v3.35c0,0.35-0.29,0.64-0.64,0.64h-47.5c-0.35,0-0.64-0.29-0.64-0.64
			V11.63z M53.53,67.07c-0.06,0.34-0.36,0.59-0.71,0.59H19.19c-0.35,0-0.65-0.25-0.71-0.59l-3.01-47.12h41.06L53.53,67.07z"/>
	</g>
	<path class="st4" d="M56.57,43.08H44.4V2.72c0-1.5-1.22-2.72-2.72-2.72H30.26c-1.5,0-2.72,1.22-2.72,2.72v40.36H15.37
		c-3.75,0-1.87,3.75-1.87,3.75l20.6,24.35c1.87,1.87,3.75,0,3.75,0l20.6-24.35C60.32,43.08,56.57,43.08,56.57,43.08z"/>
	<path class="st2" d="M56.57,28.92H44.4v40.36c0,1.5-1.22,2.72-2.72,2.72H30.26c-1.5,0-2.72-1.22-2.72-2.72V28.92H15.37
		c-3.75,0-1.87-3.75-1.87-3.75L34.1,0.83c1.87-1.87,3.75,0,3.75,0l20.6,24.35C60.32,28.92,56.57,28.92,56.57,28.92z"/>
	<path class="st5" d="M68.35,29.05.4V6.95C42.95,3.11,39.84,0,36,0s-6.95,3.11-6.95,6.95v22.1H3.65C1.64,29.05,0,30.69,0,32.7
		v6.59c0,2.02,1.64,3.65,3.65,3.65h25.4v22.1c0,3.84,3.11,6.95,6.95,6.95s6.95-3.11,6.95-6.95v-22.1h25.4
		c2.02,0,3.65-1.64,3.65-3.65V32.7C72,30.69,70.36,29.05,68.35,29.05z"/>
</g>
<g id="Layer_2" class="st0">
	<g class="st1">
		<g id="Layer_2_00000015347079766629603900000013217090662010680498_">
			<g>
				<path class="st6" d="M27.6,37.29l1.08,1.19c0,0,0.5,0.52,0.5,1.08v30.51c0,0,0.09,1.86,2.32,1.86c0,0,0.77,0.05,1.96-1.54
					l8.19-9.42c0,0,1-1,1-2.59V39.85c0,0,0.23-1.36,1.23-2.36l23.16-25.08c0,0,1.87-1.73,0.46-3.96c0,0-0.5-1.05-2.05-1.25l-6.83,0"
					/>
				<path class="st6" d="M48.42,7.2H6.39c0,0-3.23,0.62-2.23,4.35l19.1,21.11"/>
			</g>
		</g>
		<path class="st7" d="M52.25,4.14L19.71,36.68c-0.93,0.93-2.44,0.93-3.37,0l0,0c-0.93-0.93-0.93-2.44,0-3.37L48.88,0.77
			c0.93-0.93,2.44-0.93,3.37,0l0,0C53.18,1.7,53.18,3.21,52.25,4.14z"/>
	</g>
</g>
<g id="Layer_3" class="st0">
	<path class="st8" d="M70.53,5.8L44.77,33.69c-1.11,1.11-1.37,2.63-1.37,2.63v20.6c0,1.77-1.12,2.89-1.12,2.89l-9.11,10.48
		C31.86,72.05,31,72,31,72c-2.48,0-2.58-2.07-2.58-2.07V36c0-0.62-0.56-1.2-0.56-1.2l-1.2-1.32l0,0L0.59,4.84
		C-0.53,0.69,3.06,0,3.06,0l45.93,0l19.77,0c1.72,0.23,2.28,1.39,2.28,1.39C72.61,3.87,70.53,5.8,70.53,5.8z"/>
</g>
<g id="Layer_4" class="st0">
	<g class="st1">
		<path class="st6" d="M18.01,66.66c0,2.95-2.24,5.34-5,5.34s-5-2.39-5-5.34V5.34c0-2.95,2.24-5.34,5-5.34s5,2.39,5,5.34V66.66z"/>
		<path class="st6" d="M41,66.66c0,2.95-2.24,5.34-5,5.34c-2.76,0-5-2.39-5-5.34V5.34C31,2.39,33.24,0,36,0c2.76,0,5,2.39,5,5.34
			V66.66z"/>
		<path class="st6" d="M63.99,66.66c0,2.95-2.24,5.34-5,5.34c-2.76,0-5-2.39-5-5.34V5.34c0-2.95,2.24-5.34,5-5.34
			c2.76,0,5,2.39,5,5.34V66.66z"/>
	</g>
</g>
</svg>
