<svg xmlns="http://www.w3.org/2000/svg" width="5032.562" height="6039" viewBox="0 0 5032.562 6039">
  <path id="left-arrow" d="M5795.375,2276.686H775.582L2697.745,445.862c100.65-95.869,104.55-255.148,8.681-355.8-95.743-100.524-255.022-104.55-355.8-8.681l-2195.177,2091C60.464,2267.5,8,2393.817,8,2528.311c0,134.368,52.464,260.809,151.856,360.075l2190.9,2086.726a251.6,251.6,0,0,0,355.8-8.682c95.869-100.649,91.969-259.8-8.681-355.672L767.656,2779.936H5795.375c138.9,0,251.625-112.728,251.625-251.625s-112.728-251.625-251.625-251.625Z" transform="translate(5044.561 -8) rotate(90)" fill="#fff"/>
</svg>
